{"title":"Cellular 2004 DVDrip English Klam","uid":6514246,"size":1576639261,"categoryP":"video","categoryS":"movies","magnet":"?xt=urn:btih:d4021eafa81818867432e39acf16898d18f5a969&amp;dn=Cellular+2004+DVDrip+English+Klam&amp;tr=udp%3A%2F%2Ftracker.openbittorrent.com%3A80&amp;tr=udp%3A%2F%2Fopen.demonii.com%3A1337&amp;tr=udp%3A%2F%2Ftracker.coppersurfer.tk%3A6969&amp;tr=udp%3A%2F%2Fexodus.desync.com%3A6969","seeders":0,"leechers":1,"uploader":"Klambake","files":-1,"time":1309768787,"description":"With: Kim Basinger, Chris Evans and Jason Statham\n\nRyan ontvangt een oproep van een vrouw in paniek op zijn mobiele telefoon. De voor hem onbekende vrouw Jessica Martin is ontvoerd. Ze heeft totaal geen idee waar ze is en ze is ervan overtuigd, dat ze niet lang meer te leven heeft. Na zijn eerste twijfel is Ryan overtuigd van de ernst van de situatie. Hij moet helpen, hij heeft geen moment te verliezen; elke seconde telt! Ryan kan alleen maar hopen dat zijn telefoon, die bijna leeg is, hem niet in de steek laat, want wie redt Jessica als de enige lijn met de buitenwereld verbroken wordt?\n\nA young man receives an emergency phone call on his cell phone from an older woman. The catch? The woman claims to have been kidnapped; and the kidnappers have targeted her husband and child next. \n\n------------------ Dutch Friends ------------------\nYou can find my Friends at: http://www.Film-Test.nl \n------ They got my dutchs subs ---- and more ------\n\nGeneral:\n\nComplete name                    : Cellular\\Cellular.avi\nFormat                           : AVI\nFormat/Info                      : Audio Video Interleave\nFile size                        : 1.47 GiB\nDuration                         : 1h 30mn\nOverall bit rate                 : 2 332 Kbps\n\nVideo:\n\nFormat                           : MPEG-4 Visual\nFormat profile                   : Simple@L3\nFormat settings, BVOP            : No\nFormat settings, QPel            : No\nFormat settings, GMC             : No warppoints\nFormat settings, Matrix          : Default (H.263)\nCodec ID                         : XVID\nCodec ID/Hint                    : XviD\nDuration                         : 1h 30mn\nBit rate                         : 1 873 Kbps\nWidth                            : 720 pixels\nHeight                           : 304 pixels\nDisplay aspect ratio             : 2.35:1\nFrame rate                       : 25.000 fps\nColor space                      : YUV\nChroma subsampling               : 4:2:0\nBit depth                        : 8 bits\nScan type                        : Progressive\nBits/(Pixel*Frame)               : 0.342\nStream size                      : 1.18 GiB (80%)\nWriting library                  : XviD 1.1.2 (UTC 2006-11-01)\n\nAudio:\n\nFormat                           : AC-3\nFormat/Info                      : Audio Coding 3\nMode extension                   : CM (complete main)\nCodec ID                         : 2000\nDuration                         : 1h 30mn\nBit rate mode                    : Constant\nBit rate                         : 448 Kbps\nChannel(s)                       : 6 channels\nChannel positions                : Front: L C R, Side: L R, LFE\nSampling rate                    : 48.0 KHz\nBit depth                        : 16 bits\nStream size                      : 289 MiB (19%)\nAlignment                        : Aligned on interleaves\nInterleave, duration             : 32 ms (0.80 video frame)\nInterleave, preload duration     : 160 ms\n\n","torrent":{"xt":"urn:btih:d4021eafa81818867432e39acf16898d18f5a969","amp;dn":"Cellular+2004+DVDrip+English+Klam","amp;tr":["udp%3A%2F%2Ftracker.openbittorrent.com%3A80","udp%3A%2F%2Fopen.demonii.com%3A1337","udp%3A%2F%2Ftracker.coppersurfer.tk%3A6969","udp%3A%2F%2Fexodus.desync.com%3A6969"],"infoHash":"d4021eafa81818867432e39acf16898d18f5a969","infoHashBuffer":{"type":"Buffer","data":[212,2,30,175,168,24,24,134,116,50,227,154,207,22,137,141,24,245,169,105]},"announce":[],"urlList":[]}}